{
	"asset":{
		"generator":"Khronos glTF Blender I/O v5.0.21",
		"version":"2.0"
	},
	"scene":0,
	"scenes":[
		{
			"name":"Scene",
			"nodes":[
				3
			]
		}
	],
	"nodes":[
		{
			"mesh":0,
			"name":"Eyes",
			"scale":[
				0.7108113765716553,
				1,
				1
			],
			"translation":[
				-0.563117265701294,
				0.02445528842508793,
				0.09402505308389664
			]
		},
		{
			"name":"Materials",
			"rotation":[
				-0.7071068286895752,
				0,
				0,
				0.7071068286895752
			],
			"scale":[
				0.7108114361763,
				1,
				1
			],
			"translation":[
				0.0005788112757727504,
				0.024455299600958824,
				0
			]
		},
		{
			"children":[
				0,
				1
			],
			"mesh":1,
			"name":"Head",
			"rotation":[
				0.703492283821106,
				-0.04668266698718071,
				-0.04668266326189041,
				0.7076299786567688
			],
			"scale":[
				2.067584276199341,
				1.4696626663208008,
				1.4696627855300903
			],
			"translation":[
				-0.0008142966544255614,
				0,
				-0.024455305188894272
			]
		},
		{
			"children":[
				2
			],
			"name":"Geom",
			"rotation":[
				0,
				0.9997548460960388,
				0,
				0.022141868248581886
			]
		}
	],
	"materials":[
		{
			"alphaMode":"BLEND",
			"doubleSided":true,
			"name":"Material.001",
			"pbrMetallicRoughness":{
				"baseColorTexture":{
					"index":0
				},
				"metallicFactor":0,
				"roughnessFactor":0.5
			}
		},
		{
			"alphaMode":"BLEND",
			"doubleSided":true,
			"name":"Skin",
			"pbrMetallicRoughness":{
				"baseColorTexture":{
					"index":1
				},
				"metallicFactor":0,
				"roughnessFactor":0.5
			}
		}
	],
	"meshes":[
		{
			"name":"Eyes",
			"primitives":[
				{
					"attributes":{
						"POSITION":0,
						"NORMAL":1,
						"TEXCOORD_0":2
					},
					"indices":3,
					"material":0
				}
			]
		},
		{
			"name":"Head",
			"primitives":[
				{
					"attributes":{
						"POSITION":4,
						"NORMAL":5,
						"TEXCOORD_0":6
					},
					"indices":7,
					"material":1
				}
			]
		}
	],
	"textures":[
		{
			"sampler":0,
			"source":0
		},
		{
			"sampler":0,
			"source":1
		}
	],
	"images":[
		{
			"mimeType":"image/png",
			"name":"Texture_13_ffffff",
			"uri":"Texture_13_ffffff.png"
		},
		{
			"mimeType":"image/png",
			"name":"Texture_12_ffffff",
			"uri":"Texture_12_ffffff.png"
		}
	],
	"accessors":[
		{
			"bufferView":0,
			"componentType":5126,
			"count":852,
			"max":[
				0.1801666021347046,
				1.4397879838943481,
				0.09714914858341217
			],
			"min":[
				-0.4116038978099823,
				-1.4397879838943481,
				-0.639247715473175
			],
			"type":"VEC3"
		},
		{
			"bufferView":1,
			"componentType":5126,
			"count":852,
			"type":"VEC3"
		},
		{
			"bufferView":2,
			"componentType":5126,
			"count":852,
			"type":"VEC2"
		},
		{
			"bufferView":3,
			"componentType":5123,
			"count":3768,
			"type":"SCALAR"
		},
		{
			"bufferView":4,
			"componentType":5126,
			"count":688,
			"max":[
				0.7612547278404236,
				1.592514991760254,
				1.0677130222320557
			],
			"min":[
				-0.7839593291282654,
				-1.592514991760254,
				-1.3534220457077026
			],
			"type":"VEC3"
		},
		{
			"bufferView":5,
			"componentType":5126,
			"count":688,
			"type":"VEC3"
		},
		{
			"bufferView":6,
			"componentType":5126,
			"count":688,
			"type":"VEC2"
		},
		{
			"bufferView":7,
			"componentType":5123,
			"count":3552,
			"type":"SCALAR"
		}
	],
	"bufferViews":[
		{
			"buffer":0,
			"byteLength":10224,
			"byteOffset":0,
			"target":34962
		},
		{
			"buffer":0,
			"byteLength":10224,
			"byteOffset":10224,
			"target":34962
		},
		{
			"buffer":0,
			"byteLength":6816,
			"byteOffset":20448,
			"target":34962
		},
		{
			"buffer":0,
			"byteLength":7536,
			"byteOffset":27264,
			"target":34963
		},
		{
			"buffer":0,
			"byteLength":8256,
			"byteOffset":34800,
			"target":34962
		},
		{
			"buffer":0,
			"byteLength":8256,
			"byteOffset":43056,
			"target":34962
		},
		{
			"buffer":0,
			"byteLength":5504,
			"byteOffset":51312,
			"target":34962
		},
		{
			"buffer":0,
			"byteLength":7104,
			"byteOffset":56816,
			"target":34963
		}
	],
	"samplers":[
		{
			"magFilter":9729,
			"minFilter":9987
		}
	],
	"buffers":[
		{
			"byteLength":63920,
			"uri":"RIBBY_3D%20MODELgltf.bin"
		}
	]
}
